<svg xmlns="http://www.w3.org/2000/svg" viewBox="0 0 70.83 70.83"><style>
    *{fill: black}
     @media(prefers-color-scheme:dark){
        *{
            fill: white;
        }
     }
    </style><g id="Layer_2" data-name="Layer 2"><g id="Layer_1-2" data-name="Layer 1"><path d="M35.42,26.56c5.31,0,8.85,3.55,8.85,8.86s-3.54,8.85-8.85,8.85-8.86-3.54-8.86-8.85S30.1,26.56,35.42,26.56Z"/><path d="M70.83,35.42c0,20.43-15,35.41-35.41,35.41S0,55.85,0,35.42,15,0,35.42,0,70.83,15,70.83,35.42Zm-14.3,0c0-12.94-8.85-22.48-21.11-22.48S14.3,22.48,14.3,35.42s8.86,22.47,21.12,22.47S56.53,48.36,56.53,35.42Z"/></g></g></svg>