<svg xmlns="http://www.w3.org/2000/svg" viewBox="0 0 313.4 39.94"><style>
    *{fill: black}
     @media(prefers-color-scheme:dark){
        *{
            fill: white;
        }
     }
    </style><g id="Layer_2" data-name="Layer 2"><g id="Layer_1-2" data-name="Layer 1"><path d="M39.94,20c0,11.52-8.45,20-20,20S0,31.49,0,20,8.45,0,20,0,39.94,8.45,39.94,20Zm-8.06,0c0-7.3-5-12.67-11.91-12.67S8.06,12.67,8.06,20s5,12.68,11.91,12.68S31.88,27.27,31.88,20Z"/><path d="M49.54.77h7.69V32.26h23v6.91H49.54Z"/><path d="M116,20.74V.77h7.68v20c0,11.06-7.83,19.2-18.43,19.2S86.8,31.8,86.8,20.74V.77h7.68v20c0,6.91,4.53,11.91,10.76,11.91S116,27.65,116,20.74Z"/><path d="M162.46,27.42c0-3.07-3.38-4.38-11.06-4.38-12.13,0-17.36-3.22-17.36-11S140.19,0,151.71,0c10.6,0,17.67,4.92,17.67,12.29h-7.69c0-3.23-4-5.38-10-5.38-6.53,0-10,1.77-10,5.15,0,2.92,3.08,4.07,10.37,4.07,12.68,0,18,3.46,18,11.29,0,8.14-6.45,12.52-18.43,12.52-11.06,0-18.44-4.91-18.44-12.29H141c0,3.23,4.3,5.38,10.75,5.38C158.7,33,162.46,31,162.46,27.42Z"/><path d="M175.91,39.17,191.65.77h11.52l15.75,38.4h-8.3l-3.14-7.68H187.2l-3.15,7.68Zm28.72-14.59-6.91-16.9H197L190,24.58Z"/><path d="M266.16,20c0,11.06-8.45,19.2-20,19.2H227V.77h19.2C257.71.77,266.16,8.83,266.16,20ZM234.67,32.26h11.52c6.91,0,11.91-5.15,11.91-12.29s-5-12.29-11.91-12.29H234.67Z"/><path d="M283.45,7.68v8.83h22.27v6.92H283.45v8.83H313.4v6.91H275.76V.77H313.4V7.68Z"/></g></g></svg>